<svg width="214" height="80" viewBox="0 0 214 80" fill="none" xmlns="http://www.w3.org/2000/svg">
<g clip-path="url(#clip0_45_2133)">
<path d="M19.8473 33.8059L19.084 38.65H26.8051C20.728 44.1399 17.4399 52.683 17.4399 58.2023C17.4399 62.283 18.7317 65.4537 21.3445 67.6261C23.4289 69.3876 26.306 70.3564 29.8876 70.5913L30.2399 70.6206V68.9179L29.9757 68.8592C26.717 68.1252 21.2858 65.9527 21.2271 59.3472C21.1977 54.4151 26.2766 45.1967 32.1482 41.3215L30.5922 50.2757H35.5537L38.3427 33.8353L19.8473 33.8059Z" fill="#0095FF"/>
<path d="M24.662 11.9634C22.1079 11.9634 20.0235 14.0478 19.9941 16.5726L19.818 29.5487L22.4896 29.5781H25.1318L25.2785 17.2771H47.1207L47.2675 50.5982H40.2804L39.3703 55.912H47.9134C50.4675 55.912 52.5813 53.5927 52.6107 51.0386L52.5226 11.9634H24.662Z" fill="#0095FF"/>
<path d="M98.8527 46.3098C98.8527 47.9834 98.3242 49.2753 97.2672 50.1856C96.1808 51.1252 94.9476 51.595 93.4207 51.595C92.2462 51.595 91.2773 51.3307 90.5432 50.7728C89.8092 50.2149 89.2513 49.4809 88.9283 48.5707C88.576 47.6311 88.3998 46.574 88.3998 45.4289V31.9224H82.9972V46.6915C82.9972 49.7158 83.79 52.1235 85.3755 53.8265C86.9611 55.5588 89.0458 56.4397 91.5709 56.4397C93.4795 56.4397 95.1237 55.9993 96.5037 55.1184C97.414 54.5312 98.2067 53.8558 98.8234 53.1511V55.9993H104.226V31.9224H98.8234V46.3098H98.8527Z" fill="#003C46"/>
<path d="M120.111 31.4238C118.584 31.4238 117.116 31.923 115.736 32.8626C114.826 33.4792 114.062 34.2426 113.475 35.1235V31.923H108.014V55.9999H113.475V42.7576C113.475 41.6125 113.769 40.6142 114.297 39.792C114.855 38.9699 115.56 38.2946 116.411 37.8541C117.674 37.1788 119.054 37.032 120.258 37.3256C120.669 37.4137 120.992 37.5311 121.256 37.678L121.726 37.9128L123.135 32.0992L122.842 31.9523C122.166 31.5706 121.285 31.4238 120.111 31.4238Z" fill="#003C46"/>
<path d="M143.659 32.7741C142.426 31.8638 140.723 31.394 138.55 31.394C136.818 31.394 135.232 31.8345 133.823 32.7153C132.854 33.3026 132.032 33.9779 131.386 34.712V31.8638H125.983V55.9407H131.357V41.4652C131.357 40.555 131.591 39.7035 132.091 38.9401C132.59 38.1767 133.265 37.5601 134.117 37.0903C134.968 36.6205 135.937 36.3856 137.082 36.3856C138.257 36.2975 139.137 36.4737 139.783 36.9435C140.429 37.3839 140.87 38.0005 141.134 38.8226C141.428 39.6741 141.545 40.6137 141.545 41.7001V55.97H146.918V41.4065C146.918 39.6154 146.684 37.9418 146.214 36.4443C145.744 34.9175 144.892 33.6843 143.659 32.7741Z" fill="#003C46"/>
<path d="M156.079 31.9224H150.677V55.9993H156.079V31.9224Z" fill="#003C46"/>
<path d="M184.414 31.9224H179.011V55.9993H184.414V31.9224Z" fill="#003C46"/>
<path d="M208.461 36.4443C207.992 34.9175 207.111 33.6843 205.907 32.7741C204.674 31.8638 202.971 31.394 200.798 31.394C199.066 31.394 197.48 31.8345 196.071 32.7153C195.102 33.3026 194.28 33.9779 193.634 34.712V31.8638H188.231V55.9407H193.604V41.4652C193.604 40.555 193.839 39.7035 194.338 38.9401C194.837 38.1767 195.513 37.5601 196.364 37.0903C197.216 36.6205 198.185 36.3856 199.33 36.3856C200.475 36.2975 201.385 36.4737 202.031 36.9435C202.677 37.3839 203.118 38.0005 203.382 38.8226C203.675 39.6741 203.793 40.6137 203.793 41.7001V55.97H209.166V41.4065C209.166 39.5861 208.931 37.9418 208.461 36.4443Z" fill="#003C46"/>
<path d="M74.218 25.9917H68.8154V31.9228H64V37.208H68.8154V49.6282L68.8447 49.5989C69.109 54.2087 71.1937 55.9998 76.0678 55.9998C77.6534 55.9998 78.5342 55.9117 78.5636 55.9117L78.9453 55.8823V50.9202L78.4755 50.9495C78.4755 50.9495 77.4478 51.0376 77.0074 51.0376C74.6878 51.0376 74.218 50.5091 74.218 47.8665V37.1786H79.6206V31.8935H74.218V25.9917Z" fill="#003C46"/>
<path d="M169.645 25.9917H164.242V31.9228H159.427V37.208H164.242V49.6282L164.271 49.5989C164.536 54.2087 166.62 55.9998 171.495 55.9998C173.08 55.9998 173.961 55.9117 173.99 55.9117L174.372 55.8823V50.9202L173.902 50.9495C173.902 50.9495 172.875 51.0376 172.434 51.0376C170.115 51.0376 169.645 50.5091 169.645 47.8665V37.1786H175.047V31.8935H169.645V25.9917Z" fill="#003C46"/>
<path d="M153.378 27.9C154.903 27.9 156.138 26.6642 156.138 25.1399C156.138 23.6156 154.903 22.3799 153.378 22.3799C151.854 22.3799 150.618 23.6156 150.618 25.1399C150.618 26.6642 151.854 27.9 153.378 27.9Z" fill="#003C46"/>
<path d="M181.713 27.9C183.237 27.9 184.473 26.6642 184.473 25.1399C184.473 23.6156 183.237 22.3799 181.713 22.3799C180.188 22.3799 178.953 23.6156 178.953 25.1399C178.953 26.6642 180.188 27.9 181.713 27.9Z" fill="#003C46"/>
<path d="M208.347 25.9911C208.347 25.6094 208.444 25.2512 208.635 24.9165C208.826 24.5817 209.09 24.3175 209.425 24.1237C209.759 23.9299 210.12 23.833 210.505 23.833C210.89 23.833 211.245 23.9299 211.58 24.1208C211.914 24.3116 212.179 24.5759 212.372 24.9106C212.566 25.2453 212.663 25.6065 212.663 25.9911C212.663 26.3758 212.569 26.7222 212.384 27.0511C212.199 27.3829 211.938 27.6471 211.603 27.8468C211.268 28.0465 210.901 28.1463 210.505 28.1463C210.109 28.1463 209.745 28.0465 209.41 27.8497C209.075 27.653 208.814 27.3888 208.629 27.057C208.441 26.7252 208.35 26.3728 208.35 25.9941L208.347 25.9911ZM208.646 25.9911C208.646 26.3229 208.729 26.6312 208.896 26.919C209.063 27.2067 209.289 27.4328 209.577 27.5972C209.865 27.7617 210.173 27.8439 210.502 27.8439C210.831 27.8439 211.142 27.7617 211.427 27.5943C211.712 27.4269 211.938 27.2038 212.105 26.919C212.273 26.6341 212.355 26.3258 212.355 25.9882C212.355 25.6505 212.273 25.3481 212.105 25.0633C211.938 24.7785 211.715 24.5524 211.43 24.385C211.145 24.2177 210.837 24.1354 210.499 24.1354C210.161 24.1354 209.859 24.2177 209.574 24.385C209.289 24.5524 209.063 24.7755 208.896 25.0603C208.729 25.3452 208.646 25.6535 208.646 25.9911ZM211.377 25.4714C211.377 25.6241 211.336 25.7592 211.254 25.8766C211.172 25.9941 211.057 26.0821 210.91 26.1379L211.591 27.2713H211.11L210.517 26.2554H210.129V27.2713H209.703V24.7168H210.452C210.769 24.7168 211.001 24.7785 211.151 24.9018C211.298 25.0251 211.374 25.216 211.374 25.4685L211.377 25.4714ZM210.132 25.903H210.44C210.593 25.903 210.716 25.8619 210.807 25.7826C210.901 25.7034 210.945 25.6035 210.945 25.4802C210.945 25.3363 210.904 25.2336 210.822 25.1719C210.74 25.1103 210.611 25.078 210.432 25.078H210.126V25.9001L210.132 25.903Z" fill="#003C46"/>
</g>
<defs>
<clipPath id="clip0_45_2133">
<rect width="214" height="80" fill="white"/>
</clipPath>
</defs>
</svg>
